<?xml version="1.0" encoding="UTF-8"?>
<!DOCTYPE svg PUBLIC "-//W3C//DTD SVG 1.1//EN" "http://www.w3.org/Graphics/SVG/1.1/DTD/svg11.dtd">
<!-- Creator: CorelDRAW 2020 (64-Bit) -->
<svg xmlns="http://www.w3.org/2000/svg" xml:space="preserve" width="600px" height="800px" version="1.1" style="shape-rendering:geometricPrecision; text-rendering:geometricPrecision; image-rendering:optimizeQuality; fill-rule:evenodd; clip-rule:evenodd"
viewBox="0 0 600 800"
 xmlns:xlink="http://www.w3.org/1999/xlink"
 xmlns:xodm="http://www.corel.com/coreldraw/odm/2003">
 <g id="group">
  <metadata id="CorelCorpID_0Corel-Layer"/>
  
  <rect fill="#dddddd" width="600" height="800"/>
  
  <rect class="desk" id="1" fill="none" stroke="black" stroke-width ="4" x="5" y="5" width="100" height="50"/>
  <rect class="desk" id="2" fill="none" stroke="black" stroke-width ="4" x="110" y="5" width="100" height="50"/>
  <rect class="desk" id="3" fill="none" stroke="black" stroke-width ="4" x="215" y="5" width="100" height="50"/>
  <rect class="desk" id="4" fill="none" stroke="black" stroke-width ="4" x="320" y="5" width="100" height="50"/>
  
  <rect class="desk" id="5" fill="none" stroke="black" stroke-width ="4" x="545" y="5" width="50" height="100"/>
  <rect class="desk" id="6" fill="none" stroke="black" stroke-width ="4" x="545" y="110" width="50" height="100"/>
  <rect class="desk" id="7" fill="none" stroke="black" stroke-width ="4" x="545" y="215" width="50" height="100"/>
  <rect class="desk" id="8" fill="none" stroke="black" stroke-width ="4" x="545" y="320" width="50" height="100"/>
  <rect class="desk" id="9" fill="none" stroke="black" stroke-width ="4" x="545" y="425" width="50" height="100"/>
  <rect class="desk" id="10" fill="none" stroke="black" stroke-width ="4" x="545" y="530" width="50" height="100"/>
  <rect class="desk" id="11" fill="none" stroke="black" stroke-width ="4" x="545" y="635" width="50" height="100"/>
  
  <rect class="desk" id="12" fill="none" stroke="black" stroke-width ="4" x="5" y="385" width="50" height="100"/>
  <rect class="desk" id="13" fill="none" stroke="black" stroke-width ="4" x="5" y="490" width="50" height="100"/>
  
  <rect class="desk" id="0" fill="none" stroke="black" stroke-width ="4" x="5" y="645" width="100" height="50"/>
  
 </g>
</svg>
